<svg width="64" height="64" viewBox="0 0 64 64" fill="none" xmlns="http://www.w3.org/2000/svg">
<g clip-path="url(#clip0_92_1042)">
<path d="M38.0605 7.13325C35.4321 3.94632 33.1688 0.709589 32.7064 0.0373468C32.6577 -0.0124489 32.5847 -0.0124489 32.536 0.0373468C32.0736 0.709589 29.8102 3.94632 27.1818 7.13325C4.62148 36.5376 30.7351 56.3813 30.7351 56.3813L30.9541 56.5306C31.1488 59.5932 31.6355 64 31.6355 64H32.609H33.5825C33.5825 64 34.0692 59.618 34.2639 56.5306L34.4829 56.3565C34.5073 56.3565 60.6208 36.5376 38.0605 7.13325ZM32.609 55.933C32.609 55.933 31.4408 54.9123 31.1245 54.3893V54.3397L32.536 22.3209C32.536 22.2213 32.682 22.2213 32.682 22.3209L34.0936 54.3397V54.3893C33.7772 54.9123 32.609 55.933 32.609 55.933Z" fill="#00684A"/>
</g>
<defs>
<clipPath id="clip0_92_1042">
<rect width="29" height="64" fill="white" transform="translate(18)"/>
</clipPath>
</defs>
</svg>
